# ProBuilder 4.2.3
# https://unity3d.com/unity/features/worldbuilding/probuilder
# 4/9/2020 8:38:29 AM

mtllib ./appt.mtl
o appt

g Floor (1)
v -0.008463585 -21.65474 -6.01608
v -4.275353E-08 -21.65474 -6.889422E-11
v -3.829499 -21.65474 0.000963211
v -3.829242 -21.65474 -12.49534
v 1.018256 -21.65474 -12.49559
v 3.246802 -21.65474 -12.49572
v 3.247027 -21.65474 -6.015266
v -0.409456 -48.09771 -0.0006790161
v -0.4088523 -48.09771 -0.2427514
v -0.409456 -21.65471 -0.0006790161
v -0.4088523 -21.65471 -0.2427514
v -0.2503274 -48.09771 -0.2442462
v -0.2503274 -21.65471 -0.2442462
v 1.84377E-05 -48.09771 -0.0008163452
v 1.84377E-05 -21.65471 -0.0008163452
v -0.008445105 -48.09771 -6.016073
v -0.0882206 -48.09771 -6.410606
v 3.004679 -48.09771 -6.403291
v -0.0882206 -21.65471 -6.410606
v 3.004679 -21.65471 -6.403291
v 3.247027 -48.09771 -6.015296
v 3.004425 -48.09771 -8.189138
v 3.004425 -21.65471 -8.189138
v -0.2503192 -48.09771 -10.65538
v -0.1707935 -48.09771 -10.65461
v -0.2503192 -21.65471 -10.65538
v -0.1707935 -21.65471 -10.65461
v -0.1629683 -48.09771 -9.312052
v -0.1629683 -21.65471 -9.312052
v 0.6694667 -48.09771 -9.158806
v -0.09655444 -48.09771 -9.158806
v 0.6694667 -21.65471 -9.158806
v -0.09655444 -21.65471 -9.158806
v 0.8229749 -48.09771 -9.320887
v 0.8229749 -21.65471 -9.320887
v 0.8310544 -48.09771 -8.40777
v 0.8310544 -21.65471 -8.40777
v 0.6694673 -48.09771 -8.197222
v 0.6694676 -21.65471 -8.197222
v 3.004931 -48.0172 -8.408272
v 3.004931 -21.65471 -8.408272
v -3.582252 -48.09771 -0.2451662
v -1.416254 -48.09771 -0.2444801
v -3.582252 -21.65471 -0.2451662
v -1.416254 -21.65471 -0.2444801
v -1.413757 -48.09771 0.002311707
v -1.413757 -21.65471 0.002311707
v -3.829498 -48.09771 0.0009632111
v -3.584984 -48.09771 -2.494935
v -3.584984 -21.65471 -2.494935
v -1.672046 -48.09771 -2.582536
v -1.5756 -48.09771 -2.581769
v -1.672046 -21.65471 -2.582536
v -1.5756 -21.65471 -2.581769
v -1.6723 -48.09771 -2.469699
v -1.6723 -21.65471 -2.469699
v -1.421583 -48.09771 -2.469699
v -1.421583 -21.65471 -2.469699
v -1.421583 -48.09771 -3.325513
v -1.421583 -21.65471 -3.325513
v -1.5756 -48.09771 -3.245981
v -1.5756 -21.65471 -3.245981
v -3.578233 -48.09771 -3.246511
v -3.578233 -21.65471 -3.246511
v -3.588145 -48.09771 -3.333001
v -3.588145 -21.65471 -3.333001
v -3.584107 -48.09771 -2.574203
v -3.082627 -48.09771 -2.574203
v -3.584106 -21.65471 -2.574203
v -3.082627 -21.65471 -2.574203
v -3.080906 -48.09771 -2.494699
v -3.080906 -21.65471 -2.494699
v -3.767567 -48.03856 -12.49539
v -3.588395 -48.09771 -12.25387
v -3.588395 -21.65471 -12.25387
v 3.240615 -48.09771 -12.49559
v 3.246802 -48.09771 -12.49572
v 3.004931 -48.0172 -12.25361
v 3.004931 -21.65471 -12.25361
v -0.08796692 -48.09771 -8.165671
v -0.08796692 -28.27271 -8.165671
v -0.08796692 -21.65471 -8.165671
v -0.1647215 -48.09771 -8.165546
v -0.1647212 -28.27271 -8.165546
v -0.2414764 -48.09771 -8.165421
v -0.2414764 -28.27271 -8.165421
v -0.2414764 -21.65471 -8.165421
v -0.08768718 -28.27119 -7.280199
v -0.1645667 -28.27119 -7.280075
v -0.1647215 -21.65471 -8.165546
v -0.2414474 -21.65471 -7.279951
v -0.1645673 -21.65471 -7.280075
v -0.08768718 -21.65471 -7.280199
v -0.2414474 -28.27119 -7.279951
v -0.08822124 -48.09771 -7.237154
v -0.2422384 -48.09771 -7.236906
v -0.1652298 -48.09771 -7.23703
v -0.5838038 -48.0172 -12.25351
v -3.383718 -48.09771 -12.25377
v -3.383718 -21.65471 -12.25377
v -0.4513556 -48.09771 -12.49569
v -3.487137 -21.65471 -12.49544
v -0.4486987 -21.65471 -12.49582
v -0.5777493 -46.1697 -12.25341
v -3.383718 -46.2389 -12.25368
v -3.383718 -23.51352 -12.25368
v -0.4989707 -23.51352 -12.25341
v -3.412924 -46.2389 -12.49554
v -0.5731386 -46.2389 -12.49579
v -3.423702 -23.51352 -12.49554
v -0.5109412 -23.51352 -12.49592
v -0.008463542 -48.0981 -6.01608
v 0 -48.0981 0
v -3.829499 -48.0981 0.0009632111
v -3.829242 -48.0981 -12.49534
v 1.018256 -48.0981 -12.49559
v 3.246802 -48.0981 -12.49572
v 3.247027 -48.0981 -6.015266

vt 0.008463585 -6.01608
vt 4.275353E-08 -6.889422E-11
vt 3.829499 0.000963211
vt 3.829242 -12.49534
vt -1.018256 -12.49559
vt -3.246802 -12.49572
vt -3.247027 -6.015266
vt -0.01169273 -21.83519
vt -0.2537659 -21.83519
vt -0.01169273 -19.19088
vt -0.2537659 -19.19088
vt -3.492066 -21.83519
vt -3.650598 -21.83519
vt -3.492066 -19.19088
vt -3.650598 -19.19088
vt 3.898782 -21.83519
vt 3.489307 -21.83519
vt 3.898782 -19.19088
vt 3.489307 -19.19088
vt 6.012905 -21.83519
vt -0.00235796 -21.83519
vt 6.012905 -19.19088
vt -0.00235796 -19.19088
vt -3.795365 -21.83519
vt -6.888273 -21.83519
vt -3.795365 -19.19088
vt -6.888273 -19.19088
vt 7.144353 -21.83519
vt 3.888881 -21.83519
vt 7.144353 -19.19088
vt 3.888881 -19.19088
vt -6.404621 -21.83519
vt -8.190468 -21.83519
vt -6.404621 -19.19088
vt -8.190468 -19.19088
vt -3.545394 -21.83519
vt -3.624924 -21.83519
vt -3.545394 -19.19088
vt -3.624924 -19.19088
vt 10.63501 -21.83519
vt 9.292432 -21.83519
vt 10.63501 -19.19088
vt 9.292432 -19.19088
vt 4.568229 -21.83519
vt 3.802208 -21.83519
vt 4.568229 -19.19088
vt 3.802208 -19.19088
vt -3.819106 -21.83519
vt -4.805089 -21.83519
vt -3.819106 -19.19088
vt -4.805089 -19.19088
vt 9.281055 -21.83519
vt 8.367903 -21.83519
vt 9.281055 -19.19088
vt 8.367903 -19.19088
vt -8.199532 -21.83519
vt -9.161116 -21.83519
vt -8.199532 -19.19088
vt -9.161116 -19.19088
vt 6.874789 -21.83519
vt 4.539816 -21.83519
vt 6.874789 -19.19088
vt 4.539817 -19.19088
vt -4.643866 -21.83226
vt -6.903365 -21.89928
vt -4.734304 -19.11852
vt -6.993529 -19.19381
vt -0.3164332 -21.83519
vt -2.482431 -21.83519
vt -0.3164332 -19.19088
vt -2.482431 -19.19088
vt 0.2216676 -21.83519
vt -0.02513687 -21.83519
vt 0.2216676 -19.19088
vt -0.02513687 -19.19088
vt 2.485005 -21.83519
vt 0.06926346 -21.83519
vt 2.485005 -19.19088
vt 0.06926346 -19.19088
vt 2.496863 -21.83519
vt 0.247093 -21.83519
vt 2.496863 -19.19088
vt 0.247093 -19.19088
vt -2.206098 -21.83519
vt -2.302548 -21.83519
vt -2.206098 -19.19088
vt -2.302548 -19.19088
vt -2.47702 -21.83519
vt -2.589857 -21.83519
vt -2.47702 -19.19088
vt -2.589857 -19.19088
vt 2.47718 -21.83519
vt 2.226462 -21.83519
vt 2.47718 -19.19088
vt 2.226462 -19.19088
vt 3.327825 -21.83519
vt 2.472011 -21.83519
vt 3.327825 -19.19088
vt 2.472011 -19.19088
vt -2.584082 -21.83519
vt -3.248293 -21.83519
vt -2.584082 -19.19088
vt -3.248293 -19.19088
vt 2.322303 -21.83519
vt 0.3196692 -21.83519
vt 2.322303 -19.19088
vt 0.3196692 -19.19088
vt -0.2990897 -21.83519
vt -2.465665 -21.83519
vt -0.2990897 -19.19088
vt -2.465665 -19.19088
vt -0.3146567 -21.83519
vt -0.8161368 -21.83519
vt -0.3146572 -19.19088
vt -0.8161368 -19.19088
vt 2.558254 -21.83519
vt 2.478732 -21.83519
vt 2.558254 -19.19088
vt 2.478732 -19.19088
vt 0.8166904 -21.83519
vt 0.3126125 -21.83519
vt 0.8166904 -19.19088
vt 0.3126125 -19.19088
vt 3.251498 -21.83519
vt 2.579165 -21.83519
vt 3.251498 -19.19088
vt 2.579165 -19.19088
vt 0.009552479 -21.83514
vt -12.49799 -21.88235
vt -0.001930714 -19.13769
vt -12.50909 -19.19093
vt 12.25618 -21.83519
vt 3.335303 -21.83519
vt 12.25618 -19.19088
vt 3.335303 -19.19088
vt -7.401632 -21.83519
vt -7.407822 -21.83519
vt -7.407822 -19.19088
vt -8.410583 -21.7909
vt -12.25592 -21.7909
vt -8.410583 -19.15465
vt -12.25592 -19.15465
vt 12.49778 -21.83519
vt 6.017358 -21.83519
vt 12.49778 -19.19088
vt 6.017358 -19.19088
vt 8.583068 -22.32942
vt 6.818832 -20.38458
vt 8.213868 -19.11909
vt 8.679562 -18.69664
vt 10.4438 -20.64149
vt 3.824136 -24.81328
vt 3.747381 -24.81328
vt 3.747382 -22.83078
vt 3.824136 -22.83078
vt 3.670626 -24.81328
vt 3.670626 -22.83078
vt -8.154694 -21.83519
vt -10.64466 -21.83519
vt -10.64466 -19.19088
vt -8.154694 -19.19088
vt -8.154694 -19.85268
vt 3.810976 -41.47017
vt 3.734097 -41.47026
vt 3.81113 -41.38151
vt 3.734125 -41.38161
vt -3.657287 -41.50397
vt -3.734164 -41.50388
vt -3.657194 -41.41531
vt -3.734196 -41.41522
vt 8.166779 -10.26963
vt 8.166779 -10.93143
vt 7.281307 -10.26963
vt 7.281307 -10.93128
vt -3.734042 -41.50409
vt -3.810922 -41.50399
vt -3.811076 -41.41534
vt 3.657342 -41.47013
vt 3.734251 -41.38138
vt 3.657245 -41.38148
vt -8.167612 -10.93143
vt -8.167612 -10.26963
vt -7.282142 -10.93128
vt -7.282142 -10.26963
vt 7.240973 -21.83514
vt 6.414426 -21.83514
vt 6.414426 -19.19084
vt 7.284019 -19.19084
vt 7.284019 -19.85249
vt -3.668308 -24.79954
vt -3.813018 -24.79453
vt -3.745867 -22.81157
vt -3.601397 -22.81656
vt -3.745318 -24.79954
vt -3.890255 -24.79452
vt -3.822746 -22.81156
vt -3.678052 -22.81657
vt -0.251018 -21.83513
vt -7.243682 -21.83513
vt -7.286728 -19.85247
vt -7.286728 -19.19083
vt -0.251018 -19.19083
vt -3.72797 -10.65692
vt -3.735795 -9.314363
vt -4.721738 -9.323198
vt -4.729817 -8.410082
vt -6.903694 -8.410583
vt -6.903694 -12.25592
vt -0.3103683 -12.25619
vt -0.3106179 -3.335313
vt -2.47718 -3.327825
vt -2.47718 -2.472011
vt -2.226463 -2.472011
vt -2.226717 -2.584848
vt -2.323164 -2.584081
vt -2.323164 -3.248293
vt -0.3205297 -3.248823
vt -0.3146567 -2.576515
vt -0.8161364 -2.576515
vt -0.8178568 -2.497011
vt -0.3137789 -2.497247
vt -0.3165112 -0.2474779
vt -2.482509 -0.2467918
vt -2.485006 0
vt -0.06926489 -0.001348495
vt -0.0695219 -12.49765
vt -7.145565 -12.49803
vt -7.14579 -6.017608
vt -3.890318 -6.018385
vt -3.898782 -0.003128052
vt -3.489307 -0.002990723
vt -3.489911 -0.2450632
vt -3.648436 -0.2465579
vt -3.657316 -7.282262
vt -3.734196 -7.282387
vt -3.811076 -7.282511
vt -3.810543 -6.412918
vt -6.903442 -6.405603
vt -6.903188 -8.19145
vt -4.568231 -8.199533
vt -4.56823 -9.161118
vt -3.802209 -9.161118
vt -3.810796 -8.167983
vt -3.734042 -8.167858
vt -3.657287 -8.167732
vt -3.648444 -10.65769
vt 5.698127 -38.03678
vt 5.615036 -38.10986
vt 5.696852 -38.20473
vt 3.29181 -40.31018
vt 3.331762 -40.35609
vt 3.371714 -40.402
vt 3.656491 -40.1537
vt 5.265306 -41.99378
vt 4.64988 -42.53011
vt 3.434438 -41.14172
vt 3.103134 -41.43059
vt 2.705302 -40.97431
vt 3.051935 -40.68108
vt 3.012116 -40.63533
vt 2.972296 -40.58957
vt 2.109817 -41.3323
vt 2.151383 -41.37944
vt 2.618011 -40.98079
vt 3.127015 -41.57072
vt 3.445816 -41.30122
vt 4.574582 -42.59629
vt 3.249714 -43.75145
vt 1.385943 -41.61379
vt -0.1745529 -39.82418
vt 2.899163 -37.14445
vt 4.026945 -38.43271
vt 4.321806 -38.17561
vt 4.191597 -38.02628
vt 4.152852 -38.06033
vt 4.203205 -38.11754
vt 3.974359 -38.31707
vt 2.93411 -37.12437
vt 3.162696 -36.91891
vt 3.423139 -37.21761
vt 3.451425 -37.19475
vt 3.189551 -36.89457
vt 3.966103 -36.22036
vt 5.091248 -37.51032
vt 5.177574 -37.43767
vt 3.922497 -35.99915
vt -0.3508635 -39.79004
vt 3.288808 -43.96447
vt 3.291976 -43.9682
vt 5.524848 -42.02158
vt 3.833854 -40.0827
vt 5.910739 -38.28072
vt -0.3044305 -33.53246
vt -3.309021 -33.52441
vt -0.5091069 -33.53246
vt 0.3031373 -21.83519
vt 0.3044286 -19.19078
vt 0.509105 -21.83529
vt 0.5103962 -19.19088
vt 6.904032 -21.7909
vt 6.904033 -19.15465
vt 3.315297 -21.7909
vt 7.139038 -33.78898
vt 0.1308565 -33.78307
vt 3.447068 -33.78898
vt -0.04550004 -19.16782
vt -0.1626596 -21.80503
vt -0.3874526 -19.16062
vt -7.134922 -21.84287
vt -7.146675 -19.19082
vt -3.445621 -21.83512
vt -3.453846 -19.18307
vt 3.30964 -32.92885
vt 0.5114906 -32.86752
vt 3.322267 -32.67485
vt 0.5181077 -32.61181
vt -12.25685 -18.35442
vt -12.25522 -20.81284
vt -12.256 -18.5403
vt 0.5147219 -8.127346
vt 6.903372 -8.127346
vt 0.5147219 -8.313229
vt 3.39947 -8.313229
vt 6.38024 -22.63726
vt 6.462144 -20.18689
vt 6.386362 -22.45251
vt -0.1345472 -32.94018
vt -3.449928 -32.89437
vt -0.4854612 -32.70854
vt -3.324433 -32.66296
vt 0.941545 -21.25507
vt -1.535526 -21.52768
vt -0.2685785 -22.58876
vt -3.451611 -8.128725
vt -0.4131718 -8.128725
vt -3.389368 -8.314608
vt -0.4766068 -8.314608
vt -3.367484 -45.12443
vt -0.5606613 -45.12445
vt -3.370389 -45.14964
vt -0.5314651 -45.14769
vt 12.10586 -21.6493
vt 12.10586 -19.37677
vt 12.34949 -21.6493
vt 12.35078 -19.37677
vt 0.5150442 -46.09941
vt 3.399792 -46.09938
vt 0.4750605 -46.1236
vt 3.387821 -46.12363
vt -12.07292 -19.36306
vt -12.08026 -21.62906
vt -12.31282 -19.36269
vt -12.31923 -21.6356
vt 3.478002 -19.24171
vt 3.315681 -21.79095
vt -0.4117341 -45.35394
vt -0.06963015 -45.35393
vt -7.145673 -45.35397
vt -3.450173 -45.35398
vt -0.1754198 -21.80377
vt -0.2784109 -19.21925
vt -0.5122647 -19.32814
vt -3.474625 -19.19312
vt -3.406841 -21.83581
vt -3.287828 -21.64699
vt -3.406884 -19.37733
vt 0.522532 -5.964604
vt 6.538612 -5.956141
vt 6.539576 -9.785641
vt -5.956729 -9.785381
vt -5.956973 -4.937885
vt -5.957104 -2.709339
vt 0.5233461 -2.709114

vn 0 1 0
vn -0.9999969 0 -0.002493774
vn -0.009428517 0 -0.9999555
vn 0.0003353789 0 0.9999999
vn 0.999999 0 -0.001407011
vn 0.00236514 0 -0.9999972
vn -0.0002387502 0 1
vn -1 0 0.0001420488
vn 0.009653138 0 -0.9999534
vn 0.999983 0 -0.005828489
vn -0.00896044 0 -0.9999598
vn 0.9999608 0 -0.008847955
vn -0.003461859 0 0.999994
vn -0.0002307549 0 -1
vn 0.0003167221 0 -0.9999999
vn 0.9999489 0 -0.0101157
vn -0.0005582119 0 0.9999998
vn 0.007949794 0 -0.9999684
vn 1 0 0
vn 0.003455931 0 -0.999994
vn 0.999766 0 -0.02163458
vn 0.9999619 0 0.008735904
vn -0.9999877 0 -0.004955875
vn -0.9999925 -0.001168782 -0.002488221
vn -0.9999973 -0.002337564 -2.056724E-05
vn -0.0211112 0 -0.9997771
vn 0.001627674 -1.284585E-11 0.9999987
vn -0.9999937 0 0.003551364
vn 2.776824E-06 -0.9999986 0.001706002
vn 0.9999999 0 -0.0003159212
vn 0.9999998 0 0.0006134099
vn -0.001609914 -0.002171013 -0.9999964
vn -0.9999993 1.869035E-05 -0.001209462
vn 0 -1 0
vn 0.2461083 -0.8081422 -0.1126478
vn 0.008666228 -0.9845277 -0.08614909
vn 0.08823135 -0.7825629 -0.112645
vn -0.1030122 -0.9481666 0.2124571
vn 0.01066086 -0.8734758 0.4589339
vn -0.100135 -0.9067796 0.1233463
vn -0.06392003 -0.9911868 -0.0008433317
vn -0.01400362 -0.9995066 -0.001013753
vn -0.1305787 -0.9732577 -0.07905982
vn 0.004974469 -0.9166094 0.2518504
vn -0.2082385 -0.9481719 0.1072213
vn 0.1585244 -0.8108318 -0.02649593
vn 0.0004845358 -0.01353389 -0.9999083
vn -2.712202E-05 -0.006486278 0.999979
vn 0.2593044 -0.0009016359 0.9657952
vn -0.02367675 0.9611942 -0.2748547
vn -0.01183838 0.9805971 -0.1374274
vn 0.9927887 0 -0.1198777
vn 0.9896991 0.0002339749 -0.1414885
vn 0.9866096 0.0004679498 -0.1630993
vn -0.998778 0.003472884 0.04930084
vn -0.9992892 0.003104568 0.01475046
vn -0.9998003 0.002736253 -0.01979993
vn -4.07652E-06 0.9994565 -0.03296429
vn -2.208432E-06 0.999718 -0.01969497
vn -3.403447E-07 0.9999794 -0.006425647
vn -0.001257129 1.148224E-05 -0.9999992
vn 0.001762721 -5.154116E-06 -0.9999985
vn 0.00123764 -6.426779E-06 -0.9999991
vn 0.0007125597 -7.699441E-06 -0.9999998

usemtl grid
f 2/2/1 1/1/1 3/3/1
f 4/4/1 3/3/1 1/1/1
f 1/1/1 5/5/1 4/4/1
f 1/1/1 6/6/1 5/5/1
f 6/6/1 1/1/1 7/7/1

usemtl PlasticShinyDirt
f 6/138/26 77/137/26 76/136/26
f 82/150/12 81/149/12 33/151/12
f 81/149/12 31/147/12 33/151/12
f 81/149/12 80/148/12 31/147/12
f 24/159/28 85/158/28 86/162/28
f 26/160/28 24/159/28 86/162/28
f 26/160/28 86/162/28 87/161/28
f 88/189/30 93/188/31 19/187/31
f 17/186/30 88/189/30 19/187/31
f 17/186/30 95/185/19 88/189/30
f 94/200/33 96/199/33 12/198/33
f 13/202/33 94/200/33 12/198/33
f 13/202/33 91/201/33 94/200/33
f 26/246/1 29/204/1 27/203/1
f 26/246/1 87/245/1 29/204/1
f 82/243/1 33/242/1 90/244/1
f 90/244/1 33/242/1 87/245/1
f 29/204/1 87/245/1 33/242/1
f 33/242/1 32/241/1 29/204/1
f 32/241/1 35/205/1 29/204/1
f 37/206/1 35/205/1 32/241/1
f 39/240/1 37/206/1 32/241/1
f 23/239/1 37/206/1 39/240/1
f 23/239/1 41/207/1 37/206/1
f 54/215/1 53/214/1 56/213/1
f 58/212/1 54/215/1 56/213/1
f 58/212/1 60/211/1 54/215/1
f 60/211/1 62/216/1 54/215/1
f 62/216/1 60/211/1 64/217/1
f 64/217/1 60/211/1 66/210/1
f 72/220/1 70/219/1 69/218/1
f 72/220/1 69/218/1 50/221/1
f 50/221/1 69/218/1 64/217/1
f 66/210/1 50/221/1 64/217/1
f 47/224/1 45/223/1 44/222/1
f 47/224/1 44/222/1 3/225/1
f 44/222/1 50/221/1 3/225/1
f 50/221/1 66/210/1 3/225/1
f 4/226/1 3/225/1 66/210/1
f 66/210/1 75/209/1 4/226/1
f 75/209/1 6/227/1 4/226/1
f 79/208/1 6/227/1 75/209/1
f 6/227/1 79/208/1 41/207/1
f 6/227/1 41/207/1 7/228/1
f 23/239/1 7/228/1 41/207/1
f 20/238/1 7/228/1 23/239/1
f 19/237/1 93/236/1 92/235/1
f 19/237/1 92/235/1 91/234/1
f 91/234/1 13/233/1 19/237/1
f 13/233/1 11/232/1 10/231/1
f 15/230/1 13/233/1 10/231/1
f 1/229/1 13/233/1 15/230/1
f 19/237/1 13/233/1 1/229/1
f 1/229/1 20/238/1 19/237/1
f 7/228/1 20/238/1 1/229/1
f 16/291/34 18/254/34 21/290/46
f 17/253/34 18/254/34 16/291/34
f 16/291/34 12/249/34 17/253/34
f 14/292/34 12/249/34 16/291/34
f 8/247/34 12/249/34 14/292/34
f 8/247/34 9/248/34 12/249/34
f 17/253/34 12/249/34 96/250/34
f 96/250/34 97/251/34 17/253/34
f 97/251/34 95/252/34 17/253/34
f 22/255/35 21/290/46 18/254/34
f 40/267/37 21/290/46 22/255/35
f 21/290/46 40/267/37 77/289/45
f 40/267/37 78/268/38 77/289/45
f 76/288/44 77/289/45 78/268/38
f 98/269/39 76/288/44 78/268/38
f 74/270/40 76/288/44 98/269/39
f 73/287/43 76/288/44 74/270/40
f 73/287/43 74/270/40 65/271/41
f 65/271/41 48/286/42 73/287/43
f 65/271/41 67/279/34 48/286/42
f 65/271/41 63/278/34 67/279/34
f 65/271/41 61/277/34 63/278/34
f 59/272/34 61/277/34 65/271/41
f 52/276/34 61/277/34 59/272/34
f 52/276/34 59/272/34 57/273/34
f 55/274/34 52/276/34 57/273/34
f 55/274/34 51/275/34 52/276/34
f 67/279/34 49/282/34 48/286/42
f 67/279/34 68/280/34 49/282/34
f 68/280/34 71/281/34 49/282/34
f 48/286/42 49/282/34 42/283/34
f 48/286/42 42/283/34 46/285/34
f 42/283/34 43/284/34 46/285/34
f 36/266/36 40/267/37 22/255/35
f 38/256/34 36/266/36 22/255/35
f 30/257/34 36/266/36 38/256/34
f 30/257/34 34/265/34 36/266/36
f 28/264/34 34/265/34 30/257/34
f 28/264/34 30/257/34 31/258/34
f 31/258/34 85/261/34 28/264/34
f 85/261/34 31/258/34 83/260/34
f 83/260/34 31/258/34 80/259/34
f 28/264/34 85/261/34 24/262/34
f 25/263/34 28/264/34 24/262/34
f 98/294/47 99/295/47 74/293/47
f 79/301/7 98/302/7 78/300/7
f 73/304/48 101/305/48 76/303/48
f 102/308/14 73/307/14 4/306/14
f 105/318/8 106/319/8 100/317/8
f 107/325/49 104/326/49 98/324/49
f 110/332/15 108/333/15 73/331/15
f 79/301/7 107/354/7 98/355/7
f 73/360/61 102/361/61 110/362/61
f 11/11/2 9/9/2 8/8/2
f 8/8/2 10/10/2 11/11/2
f 13/15/3 12/13/3 9/12/3
f 9/12/3 11/14/3 13/15/3
f 10/19/4 8/17/4 14/16/4
f 14/16/4 15/18/4 10/19/4
f 15/23/5 14/21/5 16/20/5
f 16/20/5 1/22/5 15/23/5
f 20/27/6 18/25/6 17/24/6
f 17/24/6 19/26/6 20/27/6
f 1/31/7 16/29/7 21/28/7
f 21/28/7 7/30/7 1/31/7
f 23/35/8 22/33/8 18/32/8
f 18/32/8 20/34/8 23/35/8
f 27/39/9 25/37/9 24/36/9
f 24/36/9 26/38/9 27/39/9
f 29/43/10 28/41/10 25/40/10
f 25/40/10 27/42/10 29/43/10
f 33/47/7 31/45/7 30/44/7
f 30/44/7 32/46/7 33/47/7
f 35/51/11 34/49/11 28/48/11
f 28/48/11 29/50/11 35/51/11
f 37/55/12 36/53/12 34/52/12
f 34/52/12 35/54/12 37/55/12
f 32/59/8 30/57/8 38/56/8
f 38/56/8 39/58/8 32/59/8
f 39/63/13 38/61/13 22/60/13
f 22/60/13 23/62/13 39/63/13
f 41/67/14 40/65/14 36/64/14
f 36/64/14 37/66/14 41/67/14
f 45/71/15 43/69/15 42/68/15
f 42/68/15 44/70/15 45/71/15
f 47/75/16 46/73/16 43/72/16
f 43/72/16 45/74/16 47/75/16
f 3/79/17 48/77/17 46/76/17
f 46/76/17 47/78/17 3/79/17
f 44/83/5 42/81/5 49/80/5
f 49/80/5 50/82/5 44/83/5
f 54/87/18 52/85/18 51/84/18
f 51/84/18 53/86/18 54/87/18
f 53/91/2 51/89/2 55/88/2
f 55/88/2 56/90/2 53/91/2
f 56/95/7 55/93/7 57/92/7
f 57/92/7 58/94/7 56/95/7
f 58/99/19 57/97/19 59/96/19
f 59/96/19 60/98/19 58/99/19
f 62/103/8 61/101/8 52/100/8
f 52/100/8 54/102/8 62/103/8
f 64/107/7 63/105/7 61/104/7
f 61/104/7 62/106/7 64/107/7
f 60/111/20 59/109/20 65/108/20
f 65/108/20 66/110/20 60/111/20
f 70/115/14 68/113/14 67/112/14
f 67/112/14 69/114/14 70/115/14
f 72/119/21 71/117/21 68/116/21
f 68/116/21 70/118/21 72/119/21
f 50/123/4 49/121/4 71/120/4
f 71/120/4 72/122/4 50/123/4
f 69/127/22 67/125/22 63/124/22
f 63/124/22 64/126/22 69/127/22
f 4/131/25 73/129/24 48/128/23
f 48/128/23 3/130/24 4/131/25
f 66/135/19 65/133/19 74/132/19
f 74/132/19 75/134/19 66/135/19
f 79/142/8 78/140/8 40/139/8
f 40/139/8 41/141/8 79/142/8
f 7/146/19 21/144/19 77/143/19
f 77/143/19 6/145/19 7/146/19
f 84/154/27 83/153/27 80/152/27
f 80/152/27 81/155/27 84/154/27
f 86/157/27 85/156/27 83/153/27
f 83/153/27 84/154/27 86/157/27
f 89/166/29 84/164/29 81/163/29
f 81/163/29 88/165/29 89/166/29
f 92/170/1 90/168/1 87/167/1
f 87/167/1 91/169/1 92/170/1
f 88/174/30 81/172/30 82/171/30
f 82/171/30 93/173/30 88/174/30
f 93/177/1 82/176/1 90/175/1
f 90/175/1 92/170/1 93/177/1
f 94/180/29 86/178/29 84/164/29
f 84/164/29 89/179/29 94/180/29
f 91/184/8 87/182/8 86/181/8
f 86/181/8 94/183/8 91/184/8
f 94/193/32 89/192/32 97/191/32
f 97/191/32 96/190/32 94/193/32
f 89/197/32 88/196/32 95/195/32
f 95/195/32 97/194/32 89/197/32
f 100/299/4 75/297/4 74/296/4
f 74/296/4 99/298/4 100/299/4
f 103/312/14 6/310/14 76/309/14
f 76/309/14 101/311/14 103/312/14
f 105/316/7 99/314/7 98/313/7
f 98/313/7 104/315/7 105/316/7
f 107/323/7 79/321/7 100/320/7
f 100/320/7 106/322/7 107/323/7
f 109/330/14 101/328/14 73/327/14
f 73/327/14 108/329/14 109/330/14
f 110/337/14 102/335/14 103/334/14
f 103/334/14 111/336/14 110/337/14
f 108/341/1 105/339/51 104/338/50
f 104/338/50 109/340/51 108/341/1
f 110/345/54 106/343/53 105/342/52
f 105/342/52 108/344/53 110/345/54
f 111/349/34 107/347/34 106/346/34
f 106/346/34 110/348/34 111/349/34
f 109/353/57 104/351/56 107/350/55
f 107/350/55 111/352/56 109/353/57
f 103/359/59 102/356/58 4/357/59
f 4/357/59 6/358/60 103/359/59
f 101/364/63 109/365/64 111/366/63
f 111/366/63 103/363/62 101/364/63

usemtl FloatingMahogany_Black
f 113/368/1 112/367/1 114/369/1
f 115/370/1 114/369/1 112/367/1
f 112/367/1 116/371/1 115/370/1
f 112/367/1 117/372/1 116/371/1
f 117/372/1 112/367/1 118/373/1

